<?xml version="1.0" standalone="no"?><!DOCTYPE svg PUBLIC "-//W3C//DTD SVG 1.1//EN" "http://www.w3.org/Graphics/SVG/1.1/DTD/svg11.dtd"><svg class="icon" width="200px" height="200.00px" viewBox="0 0 1024 1024" version="1.1" xmlns="http://www.w3.org/2000/svg"><path d="M512 32C246.4 32 32 246.4 32 512s214.4 480 480 480 480-214.4 480-480S777.6 32 512 32z m288 566.4c-38.4 128-156.8 214.4-288 214.4-166.4 0-300.8-134.4-300.8-300.8s134.4-300.8 300.8-300.8c83.2 0 160 32 214.4 89.6v-16c0-19.2 12.8-32 32-32s32 12.8 32 32v86.4c0 19.2-12.8 32-32 32h-105.6c-19.2 0-32-12.8-32-32s12.8-32 32-32h22.4c-44.8-41.6-102.4-64-163.2-64-131.2 0-236.8 105.6-236.8 236.8s105.6 236.8 236.8 236.8c105.6 0 198.4-70.4 227.2-169.6 6.4-16 22.4-25.6 38.4-22.4 16 6.4 25.6 22.4 22.4 41.6z" fill="#000000" /></svg>